/* XPM */
static char *_1271125e62f4ffc8f98a0da1c1fb430lcRPCvPiN0JJGYae[] = {
/* columns rows colors chars-per-pixel */
"90 58 8 1 ",
"  c None",
". c black",
"X c #4F1507",
"o c #AD4E1A",
"O c #AE6C37",
"+ c #F68F37",
"@ c #F5B784",
"# c white",
/* pixels */
"                                                                                          ",
"                                                                                          ",
"                                                                                          ",
"                                                                                          ",
"                                                                                          ",
"                                                                                          ",
"                                                                                          ",
"                                                                                          ",
"                                                                                          ",
"                                                                                          ",
"                                                                                          ",
"                                                                                          ",
"                                                                                          ",
"                                                                                          ",
"                                                                                          ",
"                                                                                          ",
"                                                                                          ",
"                                                                                          ",
"                                                                                          ",
"                                                                                          ",
"                                                                                          ",
"                                                                                          ",
"                                                                                          ",
"                             XXXXXX     XX   XX                                           ",
"                           XXoo++++XX  XoooXXXX                                           ",
"                          XXXXXXoooooX X.ooXXooX                                          ",
"                         XX++++++++ooX X..ooooooX                                         ",
"                        X+++++++++oooX X.o@@@@++o                                         ",
"                       XoooooooooooooXXXoo@@@@@++X                                        ",
"                      XoooooooooooooXXXoo@@#..@ooo                                        ",
"                      XoooooooooooooXXooo@@#..@@o..                                       ",
"                      XoooooooooooooXXo@@@@#..@@@..                                       ",
"                      XoooooooooooooXXoO@@@@@@@@@..                                       ",
"                      XoooOOOOOOooooXXooOO@@@@@@@OO                                       ",
"                      XooOOOOOOOooooXXXXXO@@@@@OO#@                                       ",
"                      XXoOOOOXOOoooXXX.ooXX@OOO..XX                                       ",
"                       .XO...XOOooXXX.ooooXXO..X.                                         ",
"                       ...   XOOoXXX.oooooOOOO.XX.                                        ",
"                             .OOoXX.ooXXXoOO@@@@XX.                                       ",
"                             .OOoX.o++o.oOO@@@@O.XX.                                      ",
"                             .XOoX.XooX.oOO@@@OO.oX.                                      ",
"                              .XOXX....ooOO@@@@@..X.                                      ",
"                              .XXXXXXXooooOO@@@@X ..                                      ",
"                               ..XXXX++oooOO@@@@X                                         ",
"                                 ..XX+ooooXOO@@.XX                                        ",
"                                   XXoooXXXOOOO.XX                                        ",
"                                 XX++ooooXX.....Xoo                                       ",
"                                 XooooooooX    .XXXX                                      ",
"                                                                                          ",
"                                                                                          ",
"                                                                                          ",
"                                                                                          ",
"                                                                                          ",
"                                                                                          ",
"                                                                                          ",
"                                                                                          ",
"                                                                                          ",
"                                                                                          "
};
